<svg width="24" height="25" viewBox="0 0 24 25" fill="none" xmlns="http://www.w3.org/2000/svg">
<path d="M11.4385 2.48961C11.6682 2.02625 12.3318 2.02625 12.5615 2.48961L15.1666 7.74531C15.2578 7.92931 15.4341 8.05685 15.638 8.08635L21.4632 8.92914C21.9768 9.00345 22.1819 9.63184 21.8102 9.99251L17.5951 14.0835C17.4475 14.2267 17.3802 14.4331 17.415 14.6353L18.4101 20.4119C18.4978 20.9212 17.9609 21.3095 17.5016 21.0691L12.2914 18.3418C12.109 18.2463 11.891 18.2463 11.7086 18.3418L6.49841 21.0691C6.03907 21.3095 5.50221 20.9212 5.58993 20.4119L6.585 14.6353C6.61983 14.4331 6.5525 14.2267 6.40493 14.0835L2.18977 9.99251C1.81815 9.63184 2.02321 9.00345 2.53678 8.92914L8.36198 8.08635C8.56592 8.05685 8.74221 7.92931 8.83342 7.74531L11.4385 2.48961Z" fill="#CED2DA"/>
</svg>
